HIERARCHY
ROOT Hips
{
	OFFSET 0.000000 0.000000 0.000000
	CHANNELS 6 Xposition Yposition Zposition Zrotation Yrotation Xrotation 
	JOINT LHipJoint
	{
		OFFSET 0.000000 0.000000 0.000000
		CHANNELS 3 Zrotation Yrotation Xrotation
		JOINT LeftUpLeg
		{
			OFFSET 1.363060 -1.794630 0.839290
			CHANNELS 3 Zrotation Yrotation Xrotation
			JOINT LeftLeg
			{
				OFFSET 2.448110 -6.726130 0.000000
				CHANNELS 3 Zrotation Yrotation Xrotation
				JOINT LeftFoot
				{
					OFFSET 2.562200 -7.039590 0.000000
					CHANNELS 3 Zrotation Yrotation Xrotation
					JOINT LeftToeBase
					{
						OFFSET 0.157640 -0.433110 2.322550
						CHANNELS 3 Zrotation Yrotation Xrotation
						End Site
						{
							OFFSET 0.000000 0.000000 0.000000
						}
					}
				}
			}
		}
	}
	JOINT RHipJoint
	{
		OFFSET 0.000000 0.000000 0.000000
		CHANNELS 3 Zrotation Yrotation Xrotation
		JOINT RightUpLeg
		{
			OFFSET -1.305520 -1.794630 0.839290
			CHANNELS 3 Zrotation Yrotation Xrotation
			JOINT RightLeg
			{
				OFFSET -2.542530 -6.985550 0.000000
				CHANNELS 3 Zrotation Yrotation Xrotation
				JOINT RightFoot
				{
					OFFSET -2.568260 -7.056230 0.000000
					CHANNELS 3 Zrotation Yrotation Xrotation
					JOINT RightToeBase
					{
						OFFSET -0.164730 -0.452590 2.363150
						CHANNELS 3 Zrotation Yrotation Xrotation
						End Site
						{
							OFFSET 0.000000 0.000000 0.000000
						}
					}
				}
			}
		}
	}
}
MOTION
Frames: 25
Frame Time: 0.008333
0.696188 15.994167 2.612626 -95.288749 -70.364531 141.007337 -8.438531 -5.856449 -4.263916 -2.685114 9.591456 -77.750604 -1.594658 4.632408 54.012422 3.108844 9.541844 -23.317343 -2.371800 0.000000 -30.209800 6.991921 -0.821934 11.041496 4.425395 25.102330 -120.131716 10.379304 3.527051 -4.801237 0.175120 -4.104398 12.185783 -4.063000 0.000000 -77.085900
0.698801 15.961755 2.616841 -95.442384 -70.103349 141.049066 -8.453568 -5.906588 -4.227903 -2.365014 9.720002 -77.946829 -1.528922 4.694583 54.664799 3.152608 9.697881 -23.689319 -2.474800 -0.000000 -30.058200 7.086472 -0.976520 10.793540 5.133124 25.430577 -119.937854 10.544593 2.444705 -1.596991 0.903429 -1.829851 14.424036 -3.113100 0.000000 -77.790800
0.700011 15.933217 2.622418 -95.382364 -69.865509 140.840633 -8.484270 -5.966396 -4.174854 -2.011116 9.815065 -78.056241 -1.460778 4.738425 55.242768 3.190226 9.834703 -24.030303 -2.569400 -0.000001 -29.907500 7.122529 -1.082005 10.493396 5.909025 25.594238 -119.304520 10.565522 1.521728 1.049014 1.544839 0.361026 16.526091 -2.039400 0.000000 -76.902700
0.699488 15.908816 2.628257 -95.145977 -69.662682 140.451968 -8.521286 -6.023308 -4.105277 -1.653630 9.856960 -78.114871 -1.393352 4.763930 55.733288 3.222697 9.953320 -24.327541 -2.652599 -0.000000 -29.764800 7.110592 -1.153726 10.179664 6.728441 25.639478 -118.314915 10.492890 0.802401 3.124302 2.036282 2.254031 18.185454 -1.000900 -0.000001 -75.003400
0.696819 15.888681 2.633313 -94.764081 -69.504674 139.945137 -8.557827 -6.067382 -4.018617 -1.318963 9.832744 -78.159228 -1.329467 4.772193 56.128099 3.250507 10.052292 -24.569724 -2.721100 -0.000000 -29.648199 7.068668 -1.208006 9.885490 7.563102 25.608310 -117.074231 10.370297 0.283767 4.693334 2.349059 3.628890 19.242626 -0.191900 0.000000 -72.864100
0.691618 15.872736 2.636678 -94.256595 -69.402502 139.358276 -8.589843 -6.090791 -3.913820 -1.030842 9.733866 -78.212880 -1.271519 4.764425 56.423496 3.273633 10.128350 -24.750074 -2.772300 -0.000000 -29.567600 7.017285 -1.260631 9.627759 8.405628 25.532306 -115.693226 10.226295 -0.076947 5.904828 2.484341 4.347601 19.652630 0.248800 0.000000 -71.137699
0.683773 15.860939 2.637596 -93.640803 -69.367694 138.713158 -8.614641 -6.087195 -3.790348 -0.811958 9.555517 -78.288953 -1.221764 4.742009 56.619314 3.291446 10.175830 -24.866225 -2.804400 0.000000 -29.528601 6.972901 -1.321988 9.410824 9.250304 25.424586 -114.266991 10.069921 -0.333398 6.928743 2.454015 4.364744 19.447446 0.269101 -0.000000 -70.170900
0.673608 15.853160 2.636212 -92.902671 -69.395760 137.987587 -8.634937 -6.061418 -3.650560 -0.656086 9.309494 -78.382535 -1.180391 4.706642 56.721361 3.302050 10.187377 -24.919292 -2.815701 -0.000000 -29.545700 6.938721 -1.398267 9.227639 10.092694 25.283026 -112.837207 9.896459 -0.523948 7.880174 2.266472 3.697022 18.720505 -0.109101 -0.000000 -70.027400
0.661017 15.849094 2.631936 -92.053092 -69.497879 137.181599 -8.649335 -6.008510 -3.495888 -0.584450 8.995742 -78.487546 -1.149735 4.659839 56.734115 3.304479 10.156580 -24.915620 -2.806700 0.000000 -29.612000 6.921094 -1.490654 9.065863 10.933238 25.097041 -111.460043 9.699413 -0.695691 8.907848 1.940258 2.476162 17.569162 -0.777100 0.000000 -70.447500
0.646448 15.848489 2.624993 -91.087036 -69.670447 136.269713 -8.660193 -5.932751 -3.330591 -0.594068 8.627471 -78.585804 -1.130295 4.603519 56.667066 3.297204 10.077925 -24.864365 -2.778600 0.000000 -29.721301 6.916283 -1.595420 8.907716 11.767988 24.846720 -110.141815 9.469183 -0.875590 10.082302 1.495364 0.856135 16.140761 -1.607000 0.000000 -71.102400
0.630114 15.850900 2.615602 -90.002343 -69.907782 135.234987 -8.670040 -5.838300 -3.158622 -0.681292 8.219067 -78.659522 -1.122585 4.539770 56.529650 3.279234 9.948318 -24.775410 -2.733300 -0.000000 -29.870700 6.919834 -1.705105 8.736095 12.587793 24.509286 -108.874563 9.200465 -1.082308 11.434377 0.965498 -0.981311 14.607779 -2.471500 -0.000000 -71.648800
0.612484 15.855992 2.603989 -88.810789 -70.201599 134.072733 -8.680948 -5.729775 -2.984145 -0.841057 7.786406 -78.694464 -1.126771 4.471058 56.332728 3.250241 9.767642 -24.659605 -2.673801 0.000000 -30.046900 6.927546 -1.809050 8.537598 13.375200 24.064118 -107.639427 8.893500 -1.324403 12.950849 0.398947 -2.854274 13.153723 -3.273100 -0.000000 -71.847300
0.593867 15.863299 2.590468 -87.529961 -70.539159 132.793448 -8.694977 -5.612408 -2.810674 -1.063070 7.347606 -78.683306 -1.142565 4.400049 56.086612 3.210636 9.539077 -24.526301 -2.603001 0.000000 -30.241100 6.936490 -1.896993 8.305605 14.108764 23.500258 -106.410839 8.556330 -1.599580 14.579975 -0.146181 -4.595995 11.940458 -3.953300 -0.000001 -71.591900
0.574541 15.872416 2.575354 -86.184422 -70.904924 131.420514 -8.713611 -5.491097 -2.640989 -1.333716 6.920041 -78.625181 -1.169045 4.329186 55.801113 3.161416 9.268520 -24.382190 -2.523700 -0.000000 -30.448600 6.945519 -1.961720 8.040426 14.769922 22.821095 -105.164153 8.203462 -1.898002 16.252615 -0.612605 -6.063142 11.073403 -4.483900 -0.000000 -70.899800
0.554644 15.882924 2.558956 -84.802609 -71.282752 129.987440 -8.737585 -5.369750 -2.476680 -1.637752 6.517902 -78.525771 -1.204758 4.260374 55.484827 3.104337 8.964800 -24.232104 -2.438900 0.000000 -30.663000 6.954967 -2.000518 7.748479 15.344662 22.044373 -103.882317 7.852074 -2.205780 17.900353 -0.956376 -7.145528 10.582201 -4.851300 0.000000 -69.873300
0.534256 15.894483 2.541577 -83.413118 -71.657893 128.532107 -8.766875 -5.250984 -2.317119 -1.958269 6.149329 -78.396790 -1.247623 4.194594 55.144508 3.041950 8.639491 -24.079445 -2.351200 -0.000000 -30.875601 6.965966 -2.015515 7.439426 15.828601 21.199392 -102.560699 7.518376 -2.509981 19.474022 -1.155057 -7.773578 10.418274 -5.044200 0.000000 -68.637100
0.513673 15.906956 2.523442 -82.043847 -72.018067 127.086186 -8.800492 -5.136766 -2.163018 -2.279992 5.820263 -78.244145 -1.295376 4.132218 54.785952 2.976342 8.303588 -23.924163 -2.262600 -0.000000 -31.089600 6.979208 -2.010494 7.120016 16.225706 20.317206 -101.200524 7.211483 -2.802424 20.956797 -1.209816 -7.928173 10.481457 -5.054000 0.000000 -67.350100
0.492789 15.920075 2.504758 -80.708775 -72.355647 125.674140 -8.837653 -5.027488 -2.011044 -2.588855 5.525701 -78.080397 -1.345186 4.072372 54.412699 2.910538 7.970773 -23.765432 -2.175400 -0.000000 -31.303100 6.995033 -1.991740 6.798341 16.544044 19.428961 -99.817542 6.935834 -3.078359 22.353995 -1.141149 -7.640104 10.642437 -4.881500 0.000001 -66.139900
0.471546 15.933742 2.485699 -79.411790 -72.666752 124.306598 -8.877404 -4.923193 -1.858570 -2.873399 5.257963 -77.912020 -1.394443 4.013757 54.027422 2.847008 7.652789 -23.601835 -2.091100 -0.000000 -31.513900 7.012670 -1.964774 6.478822 16.796049 18.559265 -98.429965 6.689148 -3.336912 23.693494 -0.982910 -6.988279 10.772605 -4.547100 -0.000000 -65.111200
0.450036 15.947888 2.466369 -78.145494 -72.953272 122.978605 -8.918853 -4.823094 -1.701542 -3.126253 5.000949 -77.744107 -1.440373 3.954217 53.631198 2.788532 7.362238 -23.432277 -2.011800 0.000001 -31.714500 7.031242 -1.934274 6.162987 16.999788 17.721628 -97.062267 6.465969 -3.581173 25.018398 -0.772241 -6.077953 10.767086 -4.089200 -0.000000 -64.337399
0.428018 15.962359 2.446833 -76.888393 -73.219267 121.673613 -8.961406 -4.726281 -1.537144 -3.343642 4.738908 -77.577559 -1.480950 3.891801 53.224746 2.737029 7.107980 -23.255793 -1.938800 0.000000 -31.896500 7.049875 -1.903164 5.850823 17.170586 16.920490 -95.733667 6.257884 -3.813855 26.367871 -0.545854 -5.035698 10.565557 -3.565500 0.000000 -63.891300
0.405868 15.977253 2.427061 -75.623435 -73.468870 120.368749 -9.004545 -4.633074 -1.365565 -3.524130 4.461704 -77.407938 -1.514663 3.825312 52.809222 2.693215 6.894873 -23.069872 -1.872300 0.000000 -32.073600 7.067059 -1.871867 5.540645 17.319198 16.154647 -94.452982 6.054925 -4.035756 27.766644 -0.335501 -3.990812 10.157363 -3.039400 -0.000000 -63.840400
0.383444 15.992393 2.407049 -74.326597 -73.708071 119.042238 -9.047905 -4.542687 -1.186173 -3.669902 4.157695 -77.233580 -1.540766 3.753762 52.385607 2.657807 6.725917 -22.875209 -1.812801 0.000000 -32.238500 7.082816 -1.840937 5.231753 17.456305 15.418613 -93.227978 5.849595 -4.247568 29.227772 -0.164339 -3.051965 9.563563 -2.564100 -0.000000 -64.169100
0.360870 16.007723 2.386725 -72.979604 -73.943292 117.674818 -9.091123 -4.454301 -0.998663 -3.785415 3.816927 -77.053440 -1.558958 3.676488 51.954244 2.631463 6.603211 -22.673875 -1.760700 0.000000 -32.377200 7.097610 -1.810330 4.924283 17.589702 14.703781 -92.061176 5.637148 -4.448409 30.744609 -0.046446 -2.299037 8.832974 -2.175400 0.000000 -64.819301
0.338343 16.023090 2.366033 -71.583655 -74.175123 116.265508 -9.133736 -4.368261 -0.806707 -3.875939 3.444666 -76.865959 -1.570210 3.594766 51.517856 2.612736 6.520713 -22.465703 -1.714600 -0.000000 -32.507300 7.111657 -1.778817 4.619472 17.718043 14.008270 -90.944056 5.413674 -4.634793 32.292696 0.011238 -1.785514 8.035336 -1.892100 -0.000000 -65.700900
